# xmcd CD database file generated by MAGIX-FreeDB-MP3_Maker_14 v2.0beta1
# 
# Track frame offsets:
#      150
#      12110
#      21437
#      31014
#      46913
#      58893
#      74149
#      85615
#      96675
#      108404
#      119755
#      131357
#      141408
#      152461
#      162709
#      172475
#      183844
#      193051
#      203847
#      213033
#      226463
#      238172
#      248391
#      257352
#      266748
# 
# Disc length: 3706 seconds
# 
# Revision: 1 
# Processed by: cddbd v1.5.2PL0 Copyright (c) Steve Scherf et al.
# Submitted via: MAGIX-FreeDB-MP3_Maker_14 v2.0beta1
# 
DISCID=6d0e7819
DTITLE=Various Artist - Happy Days [CD1) - 100 Hits that rocked the jukebox
DYEAR=2011
DGENRE=Oldies
TTITLE0=Chuck Berry - -  Johnny B. Goode
TTITLE1=Elvis Presley - -  Don't be cruel
TTITLE2=Les Paul and Mary Ford -  - How high the moon
TTITLE3=Genn Miller - -  In the mood
TTITLE4=The Ames Brothers - -  Rag mop
TTITLE5=Louis Armstrong -  - Mack the knife
TTITLE6=Bing Crosby -  - Swinging on a star
TTITLE7=Guy Mitchell - -  Singing the blues
TTITLE8=Gene Vincent -  - Be-Bop-A-Lula
TTITLE9=Bill haley and His Comets - -  Shake, rattle and roll
TTITLE10=Booby Freeman - -  Do you wanna dance
TTITLE11=Johnny and The Hurricanes - -  Red river rock
TTITLE12=Fats Domino - -  Ain't that a shame
TTITLE13=Jimmie Rodgers - -  Honeycomb
TTITLE14=The Chordettes -  - Lollipop
TTITLE15=Eddie Fisher -  - I need yuo now
TTITLE16=Jimmy Edwards - -  Love bug crawl
TTITLE17=Little Richard -  - Rip it up
TTITLE18=Big T Tyler -  - King Kong
TTITLE19=Bobby Helms -  - My special angel
TTITLE20=Jan and Dean -  - Surf city
TTITLE21=Jimmie Rodgers -  - Oh oh I'm falling in love again
TTITLE22=Wanda Jackson -  - Long tall Sally
TTITLE23=Pat Boone - -  A wonderful time up here
TTITLE24=Johnny Horton - -  The battle of New Orleans
EXTD=
EXTT0=
EXTT1=
EXTT2=
EXTT3=
EXTT4=
EXTT5=
EXTT6=
EXTT7=
EXTT8=
EXTT9=
EXTT10=
EXTT11=
EXTT12=
EXTT13=
EXTT14=
EXTT15=
EXTT16=
EXTT17=
EXTT18=
EXTT19=
EXTT20=
EXTT21=
EXTT22=
EXTT23=
EXTT24=
PLAYORDER=
